<?xml version="1.0" encoding="UTF-8" standalone="no"?>
<!-- Created with Inkscape (http://www.inkscape.org/) -->

<svg
   version="1.0"
   width="96"
   height="96"
   id="svg2408"
   sodipodi:docname="emblem-unreadable.svg"
   inkscape:version="1.2.2 (b0a8486541, 2022-12-01)"
   inkscape:export-filename="emblem-unreadable.png"
   inkscape:export-xdpi="96"
   inkscape:export-ydpi="96"
   xmlns:inkscape="http://www.inkscape.org/namespaces/inkscape"
   xmlns:sodipodi="http://sodipodi.sourceforge.net/DTD/sodipodi-0.dtd"
   xmlns:xlink="http://www.w3.org/1999/xlink"
   xmlns="http://www.w3.org/2000/svg"
   xmlns:svg="http://www.w3.org/2000/svg"
   xmlns:rdf="http://www.w3.org/1999/02/22-rdf-syntax-ns#"
   xmlns:cc="http://creativecommons.org/ns#"
   xmlns:dc="http://purl.org/dc/elements/1.1/">
  <sodipodi:namedview
     id="namedview24059"
     pagecolor="#ffffff"
     bordercolor="#000000"
     borderopacity="0.25"
     inkscape:showpageshadow="2"
     inkscape:pageopacity="0.0"
     inkscape:pagecheckerboard="0"
     inkscape:deskcolor="#d1d1d1"
     showgrid="false"
     inkscape:zoom="10.697916"
     inkscape:cx="27.108083"
     inkscape:cy="59.076925"
     inkscape:current-layer="svg2408"
     inkscape:window-width="2560"
     inkscape:window-height="1372"
     inkscape:window-x="0"
     inkscape:window-y="1440"
     inkscape:window-maximized="0" />
  <defs
     id="defs2410">
    <linearGradient
       inkscape:collect="always"
       id="linearGradient1372">
      <stop
         style="stop-color:#000000;stop-opacity:1;"
         offset="0"
         id="stop1368" />
      <stop
         style="stop-color:#383838;stop-opacity:1;"
         offset="1"
         id="stop1370" />
    </linearGradient>
    <rect
       x="15.480572"
       y="18.596378"
       width="71.538622"
       height="59.498057"
       id="rect221" />
    <linearGradient
       id="linearGradient3729">
      <stop
         id="stop3731"
         style="stop-color:#1c59ad;stop-opacity:1"
         offset="0" />
      <stop
         id="stop3733"
         style="stop-color:#377ad6;stop-opacity:1"
         offset="1" />
    </linearGradient>
    <linearGradient
       x1="45.447727"
       y1="92.539597"
       x2="45.447727"
       y2="7.0165396"
       id="ButtonShadow"
       gradientUnits="userSpaceOnUse"
       gradientTransform="scale(1.0058652,0.994169)">
      <stop
         id="stop3750"
         style="stop-color:#000000;stop-opacity:1"
         offset="0" />
      <stop
         id="stop3752"
         style="stop-color:#000000;stop-opacity:0.58823532"
         offset="1" />
    </linearGradient>
    <linearGradient
       id="linearGradient3737">
      <stop
         id="stop3739"
         style="stop-color:#ffffff;stop-opacity:1"
         offset="0" />
      <stop
         id="stop3741"
         style="stop-color:#ffffff;stop-opacity:0"
         offset="1" />
    </linearGradient>
    <linearGradient
       id="linearGradient3700">
      <stop
         id="stop3702"
         style="stop-color:#c7009d;stop-opacity:1;"
         offset="0" />
      <stop
         id="stop3704"
         style="stop-color:#ff8eea;stop-opacity:1;"
         offset="1" />
    </linearGradient>
    <linearGradient
       x1="48"
       y1="90"
       x2="48"
       y2="5.9877172"
       id="linearGradient3706"
       xlink:href="#linearGradient3700"
       gradientUnits="userSpaceOnUse" />
    <filter
       color-interpolation-filters="sRGB"
       id="filter3174"
       x="-0.047720931"
       y="-0.048282354"
       width="1.0954419"
       height="1.0965647">
      <feGaussianBlur
         stdDeviation="1.71"
         id="feGaussianBlur3176" />
    </filter>
    <linearGradient
       x1="36.357143"
       y1="6"
       x2="36.357143"
       y2="63.893143"
       id="linearGradient3188"
       xlink:href="#linearGradient3737"
       gradientUnits="userSpaceOnUse" />
    <linearGradient
       x1="45.447727"
       y1="92.539597"
       x2="45.447727"
       y2="7.0165396"
       id="ButtonShadow-0"
       gradientUnits="userSpaceOnUse"
       gradientTransform="matrix(1.0058652,0,0,0.994169,100,0)">
      <stop
         id="stop3750-8"
         style="stop-color:#000000;stop-opacity:1"
         offset="0" />
      <stop
         id="stop3752-5"
         style="stop-color:#000000;stop-opacity:0.58823532"
         offset="1" />
    </linearGradient>
    <linearGradient
       x1="32.251034"
       y1="6.1317081"
       x2="32.251034"
       y2="90.238609"
       id="linearGradient3780"
       xlink:href="#ButtonShadow-0"
       gradientUnits="userSpaceOnUse"
       gradientTransform="matrix(1.0238095,0,0,1.0119048,-1.1428571,-98.071429)" />
    <linearGradient
       x1="32.251034"
       y1="6.1317081"
       x2="32.251034"
       y2="90.238609"
       id="linearGradient3772"
       xlink:href="#ButtonShadow-0"
       gradientUnits="userSpaceOnUse"
       gradientTransform="matrix(1.0238095,0,0,1.0119048,-1.1428571,-98.071429)" />
    <linearGradient
       x1="32.251034"
       y1="6.1317081"
       x2="32.251034"
       y2="90.238609"
       id="linearGradient3725"
       xlink:href="#ButtonShadow-0"
       gradientUnits="userSpaceOnUse"
       gradientTransform="matrix(1.0238095,0,0,1.0119048,-1.1428571,-98.071429)" />
    <linearGradient
       x1="32.251034"
       y1="6.1317081"
       x2="32.251034"
       y2="90.238609"
       id="linearGradient3721"
       xlink:href="#ButtonShadow-0"
       gradientUnits="userSpaceOnUse"
       gradientTransform="translate(0,-97)" />
    <linearGradient
       x1="32.251034"
       y1="6.1317081"
       x2="32.251034"
       y2="90.238609"
       id="linearGradient3760"
       xlink:href="#ButtonShadow-0"
       gradientUnits="userSpaceOnUse"
       gradientTransform="matrix(1.0238095,0,0,1.0119048,-1.1428571,-98.071429)" />
    <linearGradient
       id="linearGradient3737-0">
      <stop
         id="stop3739-6"
         style="stop-color:#ffffff;stop-opacity:1"
         offset="0" />
      <stop
         id="stop3741-0"
         style="stop-color:#ffffff;stop-opacity:0"
         offset="1" />
    </linearGradient>
    <radialGradient
       cx="48"
       cy="90.171875"
       r="42"
       fx="48"
       fy="90.171875"
       id="radialGradient2903"
       xlink:href="#linearGradient3737-0"
       gradientUnits="userSpaceOnUse"
       gradientTransform="matrix(1.1573129,0,0,0.99590774,-7.551021,0.1971319)" />
    <clipPath
       id="clipPath3782">
      <path
         d="m -98,6 c -3.324,0 -6,2.676 -6,6 l 0,72 c 0,3.324 2.676,6 6,6 l 72,0 c 3.324,0 6,-2.676 6,-6 l 0,-72 c 0,-3.324 -2.676,-6 -6,-6 l -72,0 z m 59.0625,12 C -38.336494,17.9909 -38,18.03125 -38,18.03125 l 0,12.0625 C -50.051065,30.305506 -53,42.0625 -53,42.0625 l 9.0625,0 0,12.0625 -14.09375,0 C -66.507844,80.276885 -86,77.9375 -86,77.9375 l 0,-12.0625 c 0,0 12.376145,2.298313 18.6875,-20.75 6.908061,-25.227422 24.167961,-27.061294 28.375,-27.125 z"
         inkscape:connector-curvature="0"
         id="path3784"
         style="fill:#ff00ff;fill-opacity:1;fill-rule:nonzero;stroke:none" />
    </clipPath>
    <filter
       x="-0.18283333"
       y="-0.14622227"
       width="1.3656667"
       height="1.2924143"
       color-interpolation-filters="sRGB"
       id="filter3786">
      <feGaussianBlur
         id="feGaussianBlur3788"
         stdDeviation="3.24" />
    </filter>
    <linearGradient
       x1="46.906918"
       y1="75.471306"
       x2="46.906918"
       y2="36.246487"
       id="linearGradient3745"
       xlink:href="#linearGradient3729"
       gradientUnits="userSpaceOnUse"
       gradientTransform="translate(-2)" />
    <linearGradient
       id="linearGradient3737-9">
      <stop
         id="stop3739-2"
         style="stop-color:#ffffff;stop-opacity:1"
         offset="0" />
      <stop
         id="stop3741-1"
         style="stop-color:#ffffff;stop-opacity:0"
         offset="1" />
    </linearGradient>
    <clipPath
       id="clipPath3613">
      <rect
         width="84"
         height="84"
         rx="6"
         ry="6"
         x="6"
         y="6"
         id="rect3615"
         style="fill:#ffffff;fill-opacity:1;fill-rule:nonzero;stroke:none" />
    </clipPath>
    <filter
       x="-0.19578789"
       y="-0.19578789"
       width="1.3915758"
       height="1.3915758"
       color-interpolation-filters="sRGB"
       id="filter3794">
      <feGaussianBlur
         id="feGaussianBlur3796"
         stdDeviation="5.28" />
    </filter>
    <linearGradient
       x1="48"
       y1="20.220806"
       x2="48"
       y2="138.66119"
       id="linearGradient4186"
       xlink:href="#linearGradient3737-9"
       gradientUnits="userSpaceOnUse" />
    <linearGradient
       id="linearGradient2660">
      <stop
         style="stop-color:#edeeec;stop-opacity:1;"
         offset="0"
         id="stop2662" />
      <stop
         style="stop-color:#babdb6;stop-opacity:1;"
         offset="1"
         id="stop2664" />
    </linearGradient>
    <linearGradient
       id="linearGradient15653">
      <stop
         style="stop-color:#f0f1ee;stop-opacity:1;"
         offset="0"
         id="stop15655" />
      <stop
         style="stop-color:#d5d9d1;stop-opacity:1;"
         offset="1"
         id="stop15657" />
    </linearGradient>
    <linearGradient
       inkscape:collect="always"
       xlink:href="#linearGradient1372"
       id="linearGradient1374"
       x1="48"
       y1="91"
       x2="48"
       y2="6"
       gradientUnits="userSpaceOnUse" />
  </defs>
  <metadata
     id="metadata2413">
    <rdf:RDF>
      <cc:Work
         rdf:about="">
        <dc:format>image/svg+xml</dc:format>
        <dc:type
           rdf:resource="http://purl.org/dc/dcmitype/StillImage" />
        <cc:license
           rdf:resource="http://creativecommons.org/publicdomain/zero/1.0/" />
      </cc:Work>
      <cc:License
         rdf:about="http://creativecommons.org/publicdomain/zero/1.0/">
        <cc:permits
           rdf:resource="http://creativecommons.org/ns#Reproduction" />
        <cc:permits
           rdf:resource="http://creativecommons.org/ns#Distribution" />
        <cc:permits
           rdf:resource="http://creativecommons.org/ns#DerivativeWorks" />
      </cc:License>
    </rdf:RDF>
  </metadata>
  <g
     id="layer7"
     style="display:inline">
    <path
       d="m 12,-95.03125 c -5.5110903,0 -10.03125,4.52016 -10.03125,10.03125 l 0,71 c 0,5.5110902 4.5201598,10.03125 10.03125,10.03125 l 72,0 c 5.51109,0 10.03125,-4.5201597 10.03125,-10.03125 l 0,-71 c 0,-5.51109 -4.52016,-10.03125 -10.03125,-10.03125 l -72,0 z"
       transform="scale(1,-1)"
       id="path3786"
       style="opacity:0.07999998;fill:url(#linearGradient3760);fill-opacity:1;fill-rule:nonzero;stroke:none;display:inline" />
    <path
       d="m 12,-94.03125 c -4.971633,0 -9.03125,4.059617 -9.03125,9.03125 l 0,71 c 0,4.9716329 4.0596171,9.03125 9.03125,9.03125 l 72,0 c 4.971633,0 9.03125,-4.059617 9.03125,-9.03125 l 0,-71 c 0,-4.971633 -4.059617,-9.03125 -9.03125,-9.03125 l -72,0 z"
       transform="scale(1,-1)"
       id="path3778"
       style="opacity:0.1;fill:url(#linearGradient3780);fill-opacity:1;fill-rule:nonzero;stroke:none;display:inline" />
    <path
       d="m 12,-93 c -4.4091333,0 -8,3.590867 -8,8 l 0,71 c 0,4.4091333 3.5908667,8 8,8 l 72,0 c 4.409133,0 8,-3.5908667 8,-8 l 0,-71 c 0,-4.409133 -3.590867,-8 -8,-8 l -72,0 z"
       transform="scale(1,-1)"
       id="path3770"
       style="opacity:0.2;fill:url(#linearGradient3772);fill-opacity:1;fill-rule:nonzero;stroke:none;display:inline" />
    <rect
       width="86"
       height="85"
       rx="7"
       ry="7"
       x="5"
       y="-92"
       transform="scale(1,-1)"
       id="rect3723"
       style="opacity:0.3;fill:url(#linearGradient3725);fill-opacity:1;fill-rule:nonzero;stroke:none;display:inline" />
    <rect
       width="84"
       height="84"
       rx="6"
       ry="6"
       x="6"
       y="-91"
       transform="scale(1,-1)"
       id="rect3716"
       style="opacity:0.45;fill:url(#linearGradient3721);fill-opacity:1;fill-rule:nonzero;stroke:none;display:inline" />
  </g>
  <g
     id="layer1">
    <rect
       width="84"
       height="84"
       rx="6"
       ry="6"
       x="6"
       y="6"
       id="rect2419"
       style="fill:url(#linearGradient3706);fill-opacity:1;fill-rule:nonzero;stroke:none" />
    <path
       id="rect381"
       style="display:inline;fill:url(#linearGradient1374);fill-opacity:1"
       d="M 12 6 C 8.6760033 6 6 8.6760033 6 12 L 6 21.578125 L 20.804688 21.578125 L 20.804688 6 L 12 6 z M 20.804688 21.578125 L 20.804688 39.1875 L 38.414062 39.1875 L 38.414062 21.578125 L 20.804688 21.578125 z M 38.414062 21.578125 L 56.023438 21.578125 L 56.023438 6 L 38.414062 6 L 38.414062 21.578125 z M 56.023438 21.578125 L 56.023438 39.1875 L 73.632812 39.1875 L 73.632812 21.578125 L 56.023438 21.578125 z M 73.632812 21.578125 L 90 21.578125 L 90 12 C 90 8.6760033 87.323997 6 84 6 L 73.632812 6 L 73.632812 21.578125 z M 73.632812 39.1875 L 73.632812 56.796875 L 90 56.796875 L 90 39.1875 L 73.632812 39.1875 z M 73.632812 56.796875 L 56.023438 56.796875 L 56.023438 74.40625 L 73.632812 74.40625 L 73.632812 56.796875 z M 73.632812 74.40625 L 73.632812 90 L 84 90 C 87.323997 90 90 87.323997 90 84 L 90 74.40625 L 73.632812 74.40625 z M 56.023438 74.40625 L 38.414062 74.40625 L 38.414062 90 L 56.023438 90 L 56.023438 74.40625 z M 38.414062 74.40625 L 38.414062 56.796875 L 20.804688 56.796875 L 20.804688 74.40625 L 38.414062 74.40625 z M 20.804688 74.40625 L 6 74.40625 L 6 84 C 6 87.323997 8.6760033 90 12 90 L 20.804688 90 L 20.804688 74.40625 z M 20.804688 56.796875 L 20.804688 39.1875 L 6 39.1875 L 6 56.796875 L 20.804688 56.796875 z M 38.414062 56.796875 L 56.023438 56.796875 L 56.023438 39.1875 L 38.414062 39.1875 L 38.414062 56.796875 z " />
    <path
       d="M 12,6 C 8.676,6 6,8.676 6,12 l 0,2 0,68 0,2 c 0,0.334721 0.04135,0.6507 0.09375,0.96875 0.0487,0.295596 0.09704,0.596915 0.1875,0.875 0.00988,0.03038 0.020892,0.0636 0.03125,0.09375 0.098865,0.287771 0.2348802,0.547452 0.375,0.8125 0.1445918,0.273507 0.3156161,0.535615 0.5,0.78125 0.1843839,0.245635 0.3737765,0.473472 0.59375,0.6875 0.439947,0.428056 0.94291,0.814526 1.5,1.09375 0.278545,0.139612 0.5734731,0.246947 0.875,0.34375 -0.2562018,-0.100222 -0.4867109,-0.236272 -0.71875,-0.375 -0.00741,-0.0044 -0.023866,0.0045 -0.03125,0 -0.031933,-0.0193 -0.062293,-0.04251 -0.09375,-0.0625 -0.120395,-0.0767 -0.2310226,-0.163513 -0.34375,-0.25 -0.1061728,-0.0808 -0.2132809,-0.161112 -0.3125,-0.25 C 8.4783201,88.557317 8.3087904,88.373362 8.15625,88.1875 8.0486711,88.057245 7.9378561,87.922215 7.84375,87.78125 7.818661,87.74287 7.805304,87.69538 7.78125,87.65625 7.716487,87.553218 7.6510225,87.451733 7.59375,87.34375 7.4927417,87.149044 7.3880752,86.928049 7.3125,86.71875 7.30454,86.69694 7.288911,86.6782 7.28125,86.65625 7.2494249,86.5643 7.2454455,86.469419 7.21875,86.375 7.1884177,86.268382 7.1483606,86.171969 7.125,86.0625 7.0521214,85.720988 7,85.364295 7,85 L 7,83 7,15 7,13 C 7,10.218152 9.2181517,8 12,8 l 2,0 68,0 2,0 c 2.781848,0 5,2.218152 5,5 l 0,2 0,68 0,2 c 0,0.364295 -0.05212,0.720988 -0.125,1.0625 -0.04415,0.206893 -0.08838,0.397658 -0.15625,0.59375 -0.0077,0.02195 -0.0233,0.04069 -0.03125,0.0625 -0.06274,0.173739 -0.138383,0.367449 -0.21875,0.53125 -0.04158,0.0828 -0.07904,0.169954 -0.125,0.25 -0.0546,0.09721 -0.126774,0.18835 -0.1875,0.28125 -0.09411,0.140965 -0.204921,0.275995 -0.3125,0.40625 -0.143174,0.17445 -0.303141,0.346998 -0.46875,0.5 -0.01117,0.0102 -0.01998,0.02115 -0.03125,0.03125 -0.138386,0.125556 -0.285091,0.234436 -0.4375,0.34375 -0.102571,0.07315 -0.204318,0.153364 -0.3125,0.21875 -0.0074,0.0045 -0.02384,-0.0044 -0.03125,0 -0.232039,0.138728 -0.462548,0.274778 -0.71875,0.375 0.301527,-0.0968 0.596455,-0.204138 0.875,-0.34375 0.55709,-0.279224 1.060053,-0.665694 1.5,-1.09375 0.219973,-0.214028 0.409366,-0.441865 0.59375,-0.6875 0.184384,-0.245635 0.355408,-0.507743 0.5,-0.78125 0.14012,-0.265048 0.276135,-0.524729 0.375,-0.8125 0.01041,-0.03078 0.02133,-0.06274 0.03125,-0.09375 0.09046,-0.278085 0.1388,-0.579404 0.1875,-0.875 C 89.95865,84.6507 90,84.334721 90,84 l 0,-2 0,-68 0,-2 C 90,8.676 87.324,6 84,6 L 12,6 z"
       inkscape:connector-curvature="0"
       id="rect3728"
       style="opacity:0.5;fill:url(#linearGradient3188);fill-opacity:1;fill-rule:nonzero;stroke:none" />
    <path
       d="M 12,90 C 8.676,90 6,87.324 6,84 V 82 14 12 c 0,-0.334721 0.04135,-0.6507 0.09375,-0.96875 0.0487,-0.295596 0.09704,-0.596915 0.1875,-0.875 C 6.29113,10.12587 6.302142,10.09265 6.3125,10.0625 6.411365,9.774729 6.5473802,9.515048 6.6875,9.25 6.8320918,8.976493 7.0031161,8.714385 7.1875,8.46875 7.3718839,8.223115 7.5612765,7.995278 7.78125,7.78125 8.221197,7.353194 8.72416,6.966724 9.28125,6.6875 9.559795,6.547888 9.8547231,6.440553 10.15625,6.34375 9.9000482,6.443972 9.6695391,6.580022 9.4375,6.71875 c -0.00741,0.0044 -0.023866,-0.0045 -0.03125,0 -0.031933,0.0193 -0.062293,0.04251 -0.09375,0.0625 -0.120395,0.0767 -0.2310226,0.163513 -0.34375,0.25 -0.1061728,0.0808 -0.2132809,0.161112 -0.3125,0.25 C 8.4783201,7.442683 8.3087904,7.626638 8.15625,7.8125 8.0486711,7.942755 7.9378561,8.077785 7.84375,8.21875 7.818661,8.25713 7.805304,8.30462 7.78125,8.34375 7.716487,8.446782 7.6510225,8.548267 7.59375,8.65625 7.4927417,8.850956 7.3880752,9.071951 7.3125,9.28125 7.30454,9.30306 7.288911,9.3218 7.28125,9.34375 7.2494249,9.4357 7.2454455,9.530581 7.21875,9.625 7.1884177,9.731618 7.1483606,9.828031 7.125,9.9375 7.0521214,10.279012 7,10.635705 7,11 v 2 68 2 c 0,2.781848 2.2181517,5 5,5 h 2 68 2 c 2.781848,0 5,-2.218152 5,-5 V 81 13 11 C 89,10.635705 88.94788,10.279012 88.875,9.9375 88.83085,9.730607 88.78662,9.539842 88.71875,9.34375 88.71105,9.3218 88.69545,9.30306 88.6875,9.28125 88.62476,9.107511 88.549117,8.913801 88.46875,8.75 88.42717,8.6672 88.38971,8.580046 88.34375,8.5 88.28915,8.40279 88.216976,8.31165 88.15625,8.21875 88.06214,8.077785 87.951329,7.942755 87.84375,7.8125 87.700576,7.63805 87.540609,7.465502 87.375,7.3125 87.36383,7.3023 87.35502,7.29135 87.34375,7.28125 87.205364,7.155694 87.058659,7.046814 86.90625,6.9375 86.803679,6.86435 86.701932,6.784136 86.59375,6.71875 c -0.0074,-0.0045 -0.02384,0.0044 -0.03125,0 -0.232039,-0.138728 -0.462548,-0.274778 -0.71875,-0.375 0.301527,0.0968 0.596455,0.204138 0.875,0.34375 0.55709,0.279224 1.060053,0.665694 1.5,1.09375 0.219973,0.214028 0.409366,0.441865 0.59375,0.6875 0.184384,0.245635 0.355408,0.507743 0.5,0.78125 0.14012,0.265048 0.276135,0.524729 0.375,0.8125 0.01041,0.03078 0.02133,0.06274 0.03125,0.09375 0.09046,0.278085 0.1388,0.579404 0.1875,0.875 C 89.95865,11.3493 90,11.665279 90,12 v 2 68 2 c 0,3.324 -2.676,6 -6,6 z"
       inkscape:connector-curvature="0"
       id="path3615"
       style="display:inline;opacity:0.3;fill:url(#radialGradient2903);fill-opacity:1;fill-rule:nonzero;stroke:none" />
  </g>
  <g
     aria-label="Missing
Icon"
     transform="matrix(1.6343287,0,0,1.6920376,-35.555455,-8.5881552)"
     id="text219"
     style="font-size:14.1871px;white-space:pre;shape-inside:url(#rect221);display:inline;fill:#ffffff;stroke:#ffffff;stroke-width:0.349947">
    <path
       id="path355"
       style="text-align:center;text-anchor:middle"
       d="M 40.325465 21.047727 C 40.117388 21.047727 39.942703 21.115009 39.800832 21.247422 C 39.658962 21.370376 39.588111 21.568759 39.588111 21.843042 C 39.588111 22.107868 39.658962 22.30625 39.800832 22.438663 C 39.942703 22.571076 40.117388 22.637203 40.325465 22.637203 C 40.514626 22.637203 40.68074 22.571076 40.822611 22.438663 C 40.97394 22.30625 41.049673 22.107868 41.049673 21.843042 C 41.049673 21.568759 40.97394 21.370376 40.822611 21.247422 C 40.68074 21.115009 40.514626 21.047727 40.325465 21.047727 z M 57.577388 21.047727 C 57.36931 21.047727 57.194626 21.115009 57.052755 21.247422 C 56.910884 21.370376 56.840034 21.568759 56.840034 21.843042 C 56.840034 22.107868 56.910884 22.30625 57.052755 22.438663 C 57.194626 22.571076 57.36931 22.637203 57.577388 22.637203 C 57.766549 22.637203 57.932663 22.571076 58.074534 22.438663 C 58.225863 22.30625 58.3004 22.107868 58.3004 21.843042 C 58.3004 21.568759 58.225863 21.370376 58.074534 21.247422 C 57.932663 21.115009 57.766549 21.047727 57.577388 21.047727 z M 26.989762 21.374395 L 26.989762 31.504563 L 28.168094 31.504563 L 28.168094 25.36136 C 28.168094 24.822251 28.158325 24.306412 28.139412 23.814593 C 28.120492 23.313316 28.096082 22.916551 28.067708 22.623352 L 28.125071 22.623352 L 31.459296 31.504563 L 32.508561 31.504563 L 35.885807 22.637203 L 35.941975 22.637203 C 35.923055 22.939861 35.89984 23.332232 35.871467 23.814593 C 35.852553 24.296954 35.842785 24.784122 35.842785 25.275941 L 35.842785 31.504563 L 37.105966 31.504563 L 37.105966 21.374395 L 35.233303 21.374395 L 32.054437 29.673838 L 31.998269 29.673838 L 28.876766 21.374395 L 26.989762 21.374395 z M 45.717587 23.758032 C 44.866362 23.758032 44.175 23.933292 43.645348 24.28324 C 43.125156 24.633188 42.864973 25.129144 42.864973 25.772292 C 42.864973 26.188447 42.960236 26.529025 43.149398 26.79385 C 43.338559 27.058676 43.607311 27.285728 43.95726 27.474889 C 44.307207 27.66405 44.728621 27.853646 45.220441 28.042807 C 45.721718 28.231968 46.105265 28.40168 46.370091 28.553009 C 46.644375 28.704337 46.832512 28.856475 46.936551 29.007804 C 47.040589 29.159134 47.093104 29.328845 47.093104 29.518007 C 47.093104 29.858496 46.951403 30.132948 46.667662 30.341025 C 46.38392 30.539645 45.92464 30.638835 45.29095 30.638835 C 44.846421 30.638835 44.406671 30.577102 43.971601 30.454147 C 43.545988 30.321734 43.181971 30.179538 42.879313 30.028209 L 42.879313 31.164043 C 43.172513 31.315373 43.508429 31.433292 43.886751 31.518415 C 44.274531 31.603537 44.733812 31.646542 45.263463 31.646542 C 46.190353 31.646542 46.928152 31.456947 47.476719 31.078625 C 48.025286 30.700303 48.298922 30.142613 48.298922 29.404885 C 48.298922 28.998189 48.209736 28.662004 48.030033 28.397178 C 47.85033 28.122894 47.590147 27.891448 47.249657 27.702287 C 46.909167 27.513126 46.497518 27.327925 46.015157 27.148221 C 45.532797 26.95906 45.144366 26.79929 44.851167 26.666877 C 44.567425 26.525006 44.364639 26.38281 44.241685 26.240939 C 44.118729 26.08961 44.057645 25.909956 44.057645 25.701879 C 44.057645 25.418137 44.18958 25.195479 44.454406 25.034692 C 44.72869 24.864446 45.120808 24.779591 45.631542 24.779591 C 46.000407 24.779591 46.360736 24.826989 46.710684 24.92157 C 47.060632 25.01615 47.395353 25.129676 47.716927 25.262089 L 48.143564 24.268234 C 47.793616 24.107447 47.414951 23.985134 47.008254 23.900011 C 46.611016 23.805431 46.181032 23.758032 45.717587 23.758032 z M 52.512712 23.758032 C 51.661487 23.758032 50.971321 23.933292 50.441669 24.28324 C 49.921476 24.633188 49.661293 25.129144 49.661293 25.772292 C 49.661293 26.188447 49.755362 26.529025 49.944523 26.79385 C 50.133684 27.058676 50.403633 27.285728 50.75358 27.474889 C 51.103529 27.66405 51.523748 27.853646 52.015566 28.042807 C 52.516844 28.231968 52.900391 28.40168 53.165217 28.553009 C 53.4395 28.704337 53.628832 28.856475 53.732871 29.007804 C 53.83691 29.159134 53.888229 29.328845 53.888229 29.518007 C 53.888229 29.858496 53.746529 30.132948 53.462787 30.341025 C 53.179045 30.539645 52.72096 30.638835 52.08727 30.638835 C 51.642741 30.638835 51.202991 30.577102 50.767921 30.454147 C 50.342308 30.321734 49.978292 30.179538 49.675634 30.028209 L 49.675634 31.164043 C 49.968834 31.315373 50.304749 31.433292 50.683072 31.518415 C 51.070852 31.603537 51.528937 31.646542 52.058589 31.646542 C 52.985478 31.646542 53.723278 31.456947 54.271845 31.078625 C 54.820412 30.700303 55.095243 30.142613 55.095243 29.404885 C 55.095243 28.998189 55.004862 28.662004 54.825158 28.397178 C 54.645455 28.122894 54.385272 27.891448 54.044783 27.702287 C 53.704292 27.513126 53.292644 27.327925 52.810283 27.148221 C 52.327922 26.95906 51.940687 26.79929 51.647487 26.666877 C 51.363745 26.525006 51.159765 26.38281 51.03681 26.240939 C 50.913856 26.08961 50.852771 25.909956 50.852771 25.701879 C 50.852771 25.418137 50.984706 25.195479 51.249531 25.034692 C 51.523815 24.864446 51.917128 24.779591 52.427863 24.779591 C 52.796727 24.779591 53.155861 24.826989 53.505809 24.92157 C 53.855758 25.01615 54.191673 25.129676 54.513247 25.262089 L 54.938689 24.268234 C 54.588741 24.107447 54.210076 23.985134 53.80338 23.900011 C 53.406142 23.805431 52.976157 23.758032 52.512712 23.758032 z M 64.258982 23.758032 C 63.776621 23.758032 63.318536 23.857223 62.883465 24.055842 C 62.448395 24.245003 62.107596 24.538183 61.861687 24.935422 L 61.791178 24.935422 L 61.607138 23.900011 L 60.599701 23.900011 L 60.599701 31.504563 L 61.847346 31.504563 L 61.847346 27.560308 C 61.847346 26.67125 62.008578 25.990093 62.330151 25.517191 C 62.651726 25.044288 63.233175 24.808448 64.074943 24.808448 C 65.209909 24.808448 65.777907 25.41793 65.777907 26.638019 L 65.777907 31.504563 L 67.012406 31.504563 L 67.012406 26.552601 C 67.012406 25.568962 66.780324 24.86029 66.31688 24.425219 C 65.853435 23.98069 65.166956 23.758032 64.258982 23.758032 z M 72.062741 23.758032 C 71.08856 23.758032 70.322661 24.117339 69.764635 24.836151 C 69.216068 25.545505 68.941237 26.505507 68.941237 27.716139 C 68.941237 28.955144 69.216068 29.91954 69.764635 30.609978 C 70.322661 31.300416 71.093443 31.646542 72.077081 31.646542 C 73.136384 31.646542 73.92062 31.262959 74.431354 30.496856 L 74.488717 30.496856 C 74.479264 30.581978 74.469496 30.732962 74.460036 30.950497 C 74.450576 31.158574 74.445695 31.3195 74.445695 31.432996 L 74.445695 31.730807 C 74.445695 32.392871 74.256363 32.913103 73.87804 33.291425 C 73.509176 33.679205 72.998576 33.873194 72.34597 33.873194 C 71.220461 33.873194 70.28476 33.674812 69.537573 33.277573 L 69.537573 34.42726 C 70.246927 34.748834 71.159411 34.908604 72.275462 34.908604 C 73.438803 34.908604 74.295084 34.635308 74.843651 34.08674 C 75.401676 33.538173 75.680195 32.719213 75.680195 31.631536 L 75.680195 23.900011 L 74.687098 23.900011 L 74.517399 24.907718 L 74.445695 24.907718 C 74.161953 24.519938 73.817468 24.231152 73.410771 24.041991 C 73.013533 23.852829 72.564017 23.758032 72.062741 23.758032 z M 39.687301 23.900011 L 39.687301 31.504563 L 40.936142 31.504563 L 40.936142 23.900011 L 39.687301 23.900011 z M 56.939224 23.900011 L 56.939224 31.504563 L 58.188064 31.504563 L 58.188064 23.900011 L 56.939224 23.900011 z M 72.232439 24.808448 C 72.998542 24.808448 73.561656 25.034346 73.921063 25.488333 C 74.280469 25.932862 74.460036 26.675752 74.460036 27.716139 L 74.460036 28.013949 C 74.460036 28.931381 74.285352 29.598203 73.935403 30.014357 C 73.585455 30.421053 73.027223 30.624984 72.261121 30.624984 C 71.599057 30.624984 71.09334 30.379203 70.743391 29.887384 C 70.402902 29.386107 70.231905 28.666338 70.231905 27.72999 C 70.231905 26.793643 70.407785 26.075028 70.757732 25.573751 C 71.107681 25.063016 71.598749 24.808448 72.232439 24.808448 z M 37.333028 39.10796 L 37.333028 39.846715 L 38.524506 40.129519 L 38.524506 48.230421 L 37.333028 48.500528 L 37.333028 49.238128 L 40.99231 49.238128 L 40.99231 48.500528 L 39.800832 48.230421 L 39.800832 40.129519 L 40.99231 39.846715 L 40.99231 39.10796 L 37.333028 39.10796 z M 45.915967 41.491597 C 45.234987 41.491597 44.624241 41.6294 44.085131 41.903684 C 43.555481 42.177967 43.135262 42.607796 42.823145 43.194195 C 42.51103 43.780594 42.354681 44.542214 42.354681 45.478562 C 42.354681 46.377078 42.501264 47.11442 42.794464 47.691362 C 43.097122 48.268303 43.50877 48.693738 44.028964 48.968021 C 44.558615 49.242305 45.159596 49.380108 45.831118 49.380108 C 46.266188 49.380108 46.633892 49.342651 46.936551 49.266986 C 47.248666 49.200779 47.533263 49.100434 47.78863 48.968021 L 47.78863 47.862199 C 47.523805 47.985154 47.230639 48.088739 46.909064 48.173861 C 46.596949 48.258983 46.232931 48.301988 45.816777 48.301988 C 45.097964 48.301988 44.553186 48.060601 44.184322 47.57824 C 43.824915 47.086421 43.645348 46.382142 43.645348 45.46471 C 43.645348 43.544725 44.392913 42.584723 45.887286 42.584723 C 46.152112 42.584723 46.435513 42.62218 46.73817 42.697844 C 47.040828 42.773509 47.305893 42.853972 47.532887 42.939094 L 47.916502 41.903684 C 47.689509 41.790187 47.396342 41.69539 47.036936 41.619725 C 46.67753 41.534602 46.303748 41.491597 45.915967 41.491597 z M 52.696752 41.491597 C 51.609076 41.491597 50.749107 41.832176 50.115417 42.513156 C 49.481727 43.194137 49.164147 44.164079 49.164147 45.422001 C 49.164147 46.263768 49.315613 46.982382 49.618271 47.57824 C 49.920929 48.164639 50.332578 48.61435 50.852771 48.926466 C 51.382422 49.229124 51.983403 49.380108 52.654925 49.380108 C 53.742601 49.380108 54.60257 49.035135 55.23626 48.344697 C 55.879408 47.654259 56.201871 46.679922 56.201871 45.422001 C 56.201871 44.580234 56.050404 43.870407 55.747747 43.293465 C 55.454547 42.707066 55.042899 42.262903 54.513247 41.960245 C 53.993054 41.648129 53.387191 41.491597 52.696752 41.491597 z M 61.833005 41.491597 C 61.350644 41.491597 60.892559 41.590788 60.457488 41.789408 C 60.022418 41.978569 59.68162 42.271749 59.43571 42.668987 L 59.365201 42.668987 L 59.181161 41.633577 L 58.173724 41.633577 L 58.173724 49.238128 L 59.421369 49.238128 L 59.421369 45.293873 C 59.421369 44.404816 59.582601 43.723659 59.904174 43.250756 C 60.225749 42.777853 60.807198 42.542014 61.648966 42.542014 C 62.783932 42.542014 63.35193 43.151495 63.35193 44.371585 L 63.35193 49.238128 L 64.586429 49.238128 L 64.586429 44.28732 C 64.586429 43.303683 64.354348 42.593856 63.890903 42.158785 C 63.427458 41.714256 62.740979 41.491597 61.833005 41.491597 z M 52.669266 42.542014 C 53.444826 42.542014 54.011628 42.796582 54.371035 43.307317 C 54.730441 43.818052 54.910008 44.523485 54.910008 45.422001 C 54.910008 46.320517 54.730441 47.034737 54.371035 47.564388 C 54.011628 48.084582 53.448514 48.344697 52.682411 48.344697 C 51.906851 48.344697 51.340049 48.084582 50.980642 47.564388 C 50.630694 47.034737 50.45601 46.320517 50.45601 45.422001 C 50.45601 44.523485 50.630694 43.818052 50.980642 43.307317 C 51.330591 42.796582 51.893705 42.542014 52.669266 42.542014 z " />
  </g>
</svg>
